<svg xmlns="http://www.w3.org/2000/svg" xmlns:xlink="http://www.w3.org/1999/xlink" width="200" zoomAndPan="magnify"
    viewBox="0 0 150 149.999998" height="200" preserveAspectRatio="xMidYMid meet" version="1.0">
    <defs>
        <filter x="0%" y="0%" width="100%" height="100%" id="b9211f5132">
            <feColorMatrix values="0 0 0 0 1 0 0 0 0 1 0 0 0 0 1 0 0 0 1 0" color-interpolation-filters="sRGB" />
        </filter>
        <mask id="3731e8a27d">
            <g filter="url(#b9211f5132)">
                <rect x="-15" width="180" fill="#000000" y="-15" height="179.999997" fill-opacity="0.35" />
            </g>
        </mask>
        <clipPath id="82d4a195ac">
            <rect x="0" width="150" y="0" height="96" />
        </clipPath>
    </defs>
    <g mask="url(#3731e8a27d)">
        <g transform="matrix(1, 0, 0, 1, 0, 30)">
            <g clip-path="url(#82d4a195ac)">
                <path fill="#d9d9d9"
                    d="M 149.191406 3 L 146.636719 3 C 143.484375 3 140.519531 4.464844 138.597656 6.972656 L 112.5 41.097656 L 86.402344 6.972656 C 84.480469 4.464844 81.515625 3 78.363281 3 L 75.808594 3 L 108.726562 46.042969 L 75.105469 90 L 77.660156 90 C 80.8125 90 83.777344 88.535156 85.699219 86.027344 L 112.5 50.976562 L 139.300781 86.027344 C 141.222656 88.535156 144.1875 90 147.339844 90 L 149.894531 90 L 116.273438 46.042969 Z M 63.867188 72.726562 C 56.203125 84.363281 41.121094 90.339844 26.695312 85.078125 C 14.015625 80.449219 6 67.828125 6 54.328125 L 6 51 L 75 51 L 75 38.601562 C 75 19.078125 60.550781 1.992188 41.109375 0.175781 C 18.820312 -1.921875 0 15.632812 0 37.5 L 0 54.222656 C 0 70.335938 9.644531 85.3125 24.808594 90.773438 C 44.613281 97.898438 65.449219 87.257812 72.492188 69 L 70.582031 69 C 67.851562 69 65.367188 70.441406 63.867188 72.726562 Z M 6 37.5 C 6 20.132812 20.132812 6 37.5 6 C 54.867188 6 69 20.132812 69 37.5 L 69 45 L 6 45 Z M 6 37.5 "
                    fill-opacity="1" fill-rule="nonzero" />
            </g>
        </g>
    </g>
</svg>