<svg xmlns="http://www.w3.org/2000/svg" xmlns:xlink="http://www.w3.org/1999/xlink" width="200" zoomAndPan="magnify"
    viewBox="0 0 150 149.999998" height="200" preserveAspectRatio="xMidYMid meet" version="1.0">
    <defs>
        <filter x="0%" y="0%" width="100%" height="100%" id="280cd4bf48">
            <feColorMatrix values="0 0 0 0 1 0 0 0 0 1 0 0 0 0 1 0 0 0 1 0" color-interpolation-filters="sRGB" />
        </filter>
        <mask id="36204bb8a9">
            <g filter="url(#280cd4bf48)">
                <rect x="-15" width="180" fill="#000000" y="-15" height="179.999997" fill-opacity="0.35" />
            </g>
        </mask>
        <clipPath id="a09973c03a">
            <path d="M 48 0 L 149.523438 0 L 149.523438 102 L 48 102 Z M 48 0 " clip-rule="nonzero" />
        </clipPath>
        <clipPath id="cfffc37aab">
            <path d="M 0.273438 0 L 149.523438 0 L 149.523438 150 L 0.273438 150 Z M 0.273438 0 " clip-rule="nonzero" />
        </clipPath>
        <mask id="6e25863ec8">
            <g filter="url(#280cd4bf48)">
                <rect x="-33" width="216" fill="#000000" y="-32.999999" height="215.999996" fill-opacity="0.405" />
            </g>
        </mask>
        <clipPath id="36ca3b7485">
            <path d="M 0.273438 0 L 149.523438 0 L 149.523438 150 L 0.273438 150 Z M 0.273438 0 " clip-rule="nonzero" />
        </clipPath>
        <clipPath id="5c4b778a70">
            <rect x="0" width="150" y="0" height="150" />
        </clipPath>
        <clipPath id="5040f7dc2d">
            <rect x="0" width="150" y="0" height="150" />
        </clipPath>
    </defs>
    <g mask="url(#36204bb8a9)">
        <g transform="matrix(1, 0, 0, 1, 0, -0.000000000000007527)">
            <g clip-path="url(#5040f7dc2d)">
                <g clip-path="url(#a09973c03a)">
                    <path fill="#d9d9d9"
                        d="M 99.558594 101.886719 L 99.558594 53.53125 C 99.558594 53.117188 99.480469 52.722656 99.320312 52.339844 C 99.164062 51.957031 98.9375 51.621094 98.644531 51.328125 C 98.351562 51.035156 98.015625 50.808594 97.632812 50.652344 C 97.25 50.492188 96.851562 50.414062 96.441406 50.414062 L 48.140625 50.414062 L 48.140625 0.5 L 146.300781 0.5 C 146.710938 0.5 147.109375 0.578125 147.492188 0.738281 C 147.875 0.894531 148.210938 1.121094 148.503906 1.414062 C 148.796875 1.707031 149.023438 2.042969 149.179688 2.425781 C 149.339844 2.808594 149.417969 3.203125 149.417969 3.617188 L 149.417969 101.886719 Z M 99.558594 101.886719 "
                        fill-opacity="1" fill-rule="evenodd" />
                </g>
                <g clip-path="url(#cfffc37aab)">
                    <g mask="url(#6e25863ec8)">
                        <g transform="matrix(1, 0, 0, 1, -0.000000000000000028, -0.000000000000007527)">
                            <g clip-path="url(#5c4b778a70)">
                                <g clip-path="url(#36ca3b7485)">
                                    <path fill="#d9d9d9"
                                        d="M 48.140625 0.5 L 48.140625 50.414062 L 2.042969 50.414062 C 1.726562 50.414062 1.4375 50.328125 1.175781 50.152344 C 0.914062 49.976562 0.722656 49.742188 0.601562 49.453125 C 0.480469 49.160156 0.453125 48.859375 0.511719 48.550781 C 0.574219 48.242188 0.714844 47.976562 0.9375 47.753906 Z M 99.558594 148.035156 L 99.558594 101.886719 L 149.417969 101.886719 L 102.21875 149.136719 C 101.996094 149.359375 101.730469 149.5 101.421875 149.5625 C 101.113281 149.625 100.8125 149.59375 100.519531 149.476562 C 100.230469 149.355469 99.996094 149.164062 99.820312 148.902344 C 99.644531 148.640625 99.558594 148.351562 99.558594 148.035156 Z M 48.140625 50.414062 L 98 50.414062 C 98.207031 50.414062 98.40625 50.453125 98.59375 50.53125 C 98.785156 50.613281 98.957031 50.726562 99.101562 50.871094 C 99.246094 51.015625 99.359375 51.1875 99.4375 51.375 C 99.519531 51.566406 99.558594 51.765625 99.558594 51.972656 L 99.558594 101.886719 L 51.257812 101.886719 C 50.84375 101.886719 50.449219 101.808594 50.066406 101.652344 C 49.683594 101.492188 49.347656 101.265625 49.054688 100.976562 C 48.761719 100.683594 48.535156 100.34375 48.378906 99.964844 C 48.21875 99.582031 48.140625 99.183594 48.140625 98.769531 Z M 48.140625 50.414062 "
                                        fill-opacity="1" fill-rule="evenodd" />
                                </g>
                            </g>
                        </g>
                    </g>
                </g>
            </g>
        </g>
    </g>
</svg>