<svg xmlns="http://www.w3.org/2000/svg" xmlns:xlink="http://www.w3.org/1999/xlink" width="200" zoomAndPan="magnify"
    viewBox="0 0 150 149.999998" height="200" preserveAspectRatio="xMidYMid meet" version="1.0">
    <defs>
        <filter x="0%" y="0%" width="100%" height="100%" id="d649ccb39c">
            <feColorMatrix values="0 0 0 0 1 0 0 0 0 1 0 0 0 0 1 0 0 0 1 0" color-interpolation-filters="sRGB" />
        </filter>
        <mask id="824ec3e311">
            <g filter="url(#d649ccb39c)">
                <rect x="-15" width="180" fill="#000000" y="-15" height="179.999997" fill-opacity="0.35" />
            </g>
        </mask>
        <clipPath id="821ccf65f6">
            <path
                d="M 0.636719 0.238281 L 141.636719 0.238281 L 141.636719 149.761719 L 0.636719 149.761719 Z M 0.636719 0.238281 "
                clip-rule="nonzero" />
        </clipPath>
        <clipPath id="20d31100eb">
            <path d="M 70 0.238281 L 141.636719 0.238281 L 141.636719 149.761719 L 70 149.761719 Z M 70 0.238281 "
                clip-rule="nonzero" />
        </clipPath>
        <clipPath id="df44afc6ba">
            <rect x="0" width="146" y="0" height="150" />
        </clipPath>
    </defs>
    <g mask="url(#824ec3e311)">
        <g transform="matrix(1, 0, 0, 1, 4, -0.000000000000007522)">
            <g clip-path="url(#df44afc6ba)">
                <g clip-path="url(#821ccf65f6)">
                    <path fill="#939597"
                        d="M 0.636719 25.144531 L 70.027344 0.445312 L 141.242188 24.761719 L 129.734375 116.527344 L 70.027344 149.554688 L 11.289062 116.953125 Z M 0.636719 25.144531 "
                        fill-opacity="1" fill-rule="nonzero" />
                </g>
                <g clip-path="url(#20d31100eb)">
                    <path fill="#737373"
                        d="M 141.242188 24.761719 L 70.027344 0.445312 L 70.027344 149.554688 L 129.734375 116.527344 Z M 141.242188 24.761719 "
                        fill-opacity="1" fill-rule="nonzero" />
                </g>
                <path fill="#ffffff"
                    d="M 70.132812 17.875 L 26.894531 114.046875 L 43.027344 113.722656 L 51.742188 91.988281 L 90.417969 91.988281 L 99.886719 113.890625 L 115.269531 114.214844 Z M 70.242188 48.746094 L 84.871094 79.300781 L 57.484375 79.300781 L 70.28125 48.746094 Z M 70.242188 48.746094 "
                    fill-opacity="1" fill-rule="nonzero" />
            </g>
        </g>
    </g>
</svg>