<svg xmlns="http://www.w3.org/2000/svg" xmlns:xlink="http://www.w3.org/1999/xlink" width="200" zoomAndPan="magnify"
    viewBox="0 0 150 149.999998" height="200" preserveAspectRatio="xMidYMid meet" version="1.0">
    <defs>
        <filter x="0%" y="0%" width="100%" height="100%" id="22c1850d52">
            <feColorMatrix values="0 0 0 0 1 0 0 0 0 1 0 0 0 0 1 0 0 0 1 0" color-interpolation-filters="sRGB" />
        </filter>
        <mask id="f903be1e11">
            <g filter="url(#22c1850d52)">
                <rect x="-15" width="180" fill="#000000" y="-15" height="179.999997" fill-opacity="0.35" />
            </g>
        </mask>
        <clipPath id="184e70fea7">
            <rect x="0" width="150" y="0" height="150" />
        </clipPath>
    </defs>
    <g mask="url(#f903be1e11)">
        <g transform="matrix(1, 0, 0, 1, 0, -0.000000000000007527)">
            <g clip-path="url(#184e70fea7)">
                <path fill="#d9d9d9"
                    d="M 69.105469 0.101562 C 68.757812 0.136719 67.632812 0.265625 66.621094 0.359375 C 52.214844 1.871094 38.035156 7.964844 26.46875 17.652344 C 24.332031 19.421875 19.46875 24.285156 17.699219 26.421875 C 8.121094 37.859375 2.523438 50.695312 0.460938 65.890625 C 0 69.261719 0 80.644531 0.460938 84.015625 C 2.523438 99.210938 8.121094 112.046875 17.699219 123.488281 C 19.46875 125.625 24.332031 130.484375 26.46875 132.253906 C 37.90625 141.832031 50.742188 147.429688 65.9375 149.492188 C 69.308594 149.953125 80.691406 149.953125 84.0625 149.492188 C 99.257812 147.429688 112.09375 141.832031 123.53125 132.253906 C 125.667969 130.484375 130.53125 125.625 132.300781 123.488281 C 141.878906 112.046875 147.476562 99.210938 149.539062 84.015625 C 150 80.644531 150 69.261719 149.539062 65.890625 C 147.476562 50.695312 141.878906 37.859375 132.300781 26.421875 C 130.53125 24.285156 125.667969 19.421875 123.53125 17.652344 C 112.132812 8.113281 99.164062 2.441406 84.171875 0.433594 C 82.550781 0.210938 80.195312 0.121094 75.828125 0.0820312 C 72.496094 0.046875 69.457031 0.0664062 69.105469 0.101562 Z M 70.027344 8.058594 C 70.027344 10.214844 70.175781 14.890625 70.378906 19.332031 C 70.488281 21.503906 70.617188 24.617188 70.671875 26.238281 C 70.875 31.984375 71.480469 47.070312 71.574219 48.414062 L 71.667969 49.757812 L 70.835938 49.664062 C 70.378906 49.628906 69.953125 49.519531 69.878906 49.460938 C 69.824219 49.390625 69.695312 48.117188 69.621094 46.625 C 69.289062 40.070312 68.203125 14.632812 68.09375 10.914062 L 67.984375 6.824219 L 68.5 6.75 C 68.773438 6.714844 69.234375 6.660156 69.53125 6.640625 L 70.027344 6.621094 Z M 87.652344 7.617188 C 87.671875 7.632812 87.726562 13.195312 87.78125 19.976562 C 87.855469 26.769531 87.949219 32.867188 88.003906 33.53125 C 88.058594 34.210938 88.039062 34.800781 87.949219 34.839844 C 87.875 34.894531 87.414062 34.894531 86.953125 34.839844 L 86.105469 34.765625 L 85.976562 29.40625 C 85.902344 26.441406 85.8125 23.160156 85.773438 22.09375 C 85.628906 18.832031 85.5 7.761719 85.609375 7.488281 C 85.683594 7.285156 85.886719 7.265625 86.660156 7.394531 C 87.191406 7.503906 87.636719 7.597656 87.652344 7.617188 Z M 45.050781 13.785156 C 45.160156 13.953125 46.027344 24.101562 47.097656 37.378906 C 47.445312 41.894531 47.796875 46.019531 47.851562 46.535156 C 47.941406 47.472656 47.925781 47.511719 47.335938 47.878906 C 47.003906 48.082031 46.671875 48.246094 46.597656 48.246094 C 46.542969 48.246094 46.433594 47.769531 46.378906 47.179688 C 46.121094 44.785156 45.125 33.21875 44.425781 24.855469 C 44.019531 19.9375 43.652344 15.535156 43.597656 15.058594 C 43.503906 14.246094 43.523438 14.171875 44 13.914062 C 44.589844 13.601562 44.921875 13.546875 45.050781 13.785156 Z M 95.757812 17.488281 C 96.273438 17.671875 96.328125 17.765625 96.4375 18.816406 C 96.625 20.65625 96.566406 29.460938 96.367188 29.460938 C 95.832031 29.460938 94.726562 28.835938 94.632812 28.484375 C 94.578125 28.261719 94.523438 25.648438 94.523438 22.683594 C 94.523438 16.695312 94.449219 17.046875 95.757812 17.488281 Z M 61.738281 18.355469 C 61.738281 18.851562 61.867188 21.59375 62.015625 24.488281 C 62.164062 27.378906 62.328125 31.042969 62.402344 32.628906 C 62.53125 35.832031 62.566406 35.722656 61.332031 35.796875 C 60.726562 35.816406 60.726562 35.816406 60.6875 34.894531 C 60.652344 34.378906 60.558594 32.777344 60.449219 31.300781 C 60.355469 29.828125 60.136719 26.640625 59.988281 24.210938 C 59.839844 21.78125 59.65625 19.367188 59.601562 18.851562 C 59.492188 17.929688 59.511719 17.894531 60.007812 17.710938 C 60.300781 17.597656 60.816406 17.507812 61.148438 17.507812 C 61.738281 17.488281 61.738281 17.488281 61.738281 18.355469 Z M 112.832031 20.878906 L 113.457031 21.136719 L 113.585938 23.601562 C 113.640625 24.949219 113.679688 27.859375 113.640625 30.050781 L 113.585938 34.066406 L 112.8125 33.679688 L 112.039062 33.308594 L 111.984375 27.195312 C 111.949219 23.824219 111.964844 20.96875 112.003906 20.839844 C 112.078125 20.5625 112.078125 20.5625 112.832031 20.878906 Z M 79.199219 23.289062 C 79.308594 23.402344 79.566406 32.332031 79.585938 36.863281 L 79.605469 39.589844 L 78.738281 39.460938 C 78.242188 39.40625 77.835938 39.351562 77.816406 39.332031 C 77.761719 39.296875 77.210938 25.648438 77.210938 24.320312 L 77.210938 22.957031 L 78.148438 23.070312 C 78.683594 23.144531 79.144531 23.234375 79.199219 23.289062 Z M 121.617188 24.597656 C 121.839844 24.855469 121.875 28.890625 121.929688 51.140625 C 121.984375 76.683594 121.984375 77.347656 121.652344 77.347656 C 121.453125 77.347656 121.175781 77.238281 121.007812 77.109375 C 120.734375 76.90625 120.695312 74.675781 120.605469 52.851562 C 120.53125 39.628906 120.4375 27.617188 120.382812 26.164062 L 120.273438 23.511719 L 120.808594 23.898438 C 121.121094 24.117188 121.46875 24.433594 121.617188 24.597656 Z M 105.097656 28.375 C 105.1875 28.449219 105.28125 29.496094 105.296875 30.695312 C 105.390625 34.765625 105.410156 59.722656 105.316406 59.796875 C 105.28125 59.832031 104.949219 59.742188 104.578125 59.59375 L 103.917969 59.316406 L 103.917969 27.988281 L 104.433594 28.097656 C 104.707031 28.171875 105.003906 28.28125 105.097656 28.375 Z M 54.261719 29.40625 C 54.316406 29.902344 54.40625 31.027344 54.464844 31.945312 C 54.519531 32.847656 54.648438 34.914062 54.757812 36.515625 C 54.980469 39.757812 54.941406 39.957031 53.890625 39.957031 C 53.339844 39.957031 53.265625 39.902344 53.191406 39.351562 C 53.007812 38.265625 52.363281 29.203125 52.457031 29.054688 C 52.546875 28.925781 53.503906 28.59375 53.949219 28.558594 C 54.058594 28.539062 54.207031 28.925781 54.261719 29.40625 Z M 23.796875 34.101562 C 24 36.054688 24.40625 40.144531 24.699219 43.183594 C 25.011719 46.222656 25.269531 48.800781 25.269531 48.910156 C 25.269531 49.132812 23.851562 49.832031 23.703125 49.683594 C 23.613281 49.589844 21.769531 33.292969 21.769531 32.554688 C 21.769531 32.113281 23.1875 30.253906 23.371094 30.453125 C 23.429688 30.492188 23.613281 32.132812 23.796875 34.101562 Z M 96.015625 36.035156 L 96.550781 36.347656 L 96.566406 40.328125 C 96.585938 42.5 96.625 44.933594 96.625 45.722656 C 96.660156 47.382812 96.457031 47.65625 95.464844 47.308594 L 94.890625 47.105469 L 94.890625 45.519531 C 94.890625 44.636719 94.835938 42.078125 94.761719 39.8125 L 94.652344 35.722656 L 95.074219 35.722656 C 95.296875 35.722656 95.722656 35.871094 96.015625 36.035156 Z M 31.882812 43.183594 C 32.214844 46.71875 32.746094 52.6875 33.097656 56.445312 L 33.722656 63.257812 L 33.007812 63.976562 L 32.304688 64.695312 L 32.175781 63.238281 C 32.101562 62.429688 31.734375 58.671875 31.347656 54.878906 C 30.960938 51.082031 30.410156 45.578125 30.132812 42.648438 L 29.617188 37.34375 L 30.335938 36.679688 C 30.980469 36.074219 31.054688 36.054688 31.183594 36.386719 C 31.257812 36.570312 31.570312 39.628906 31.882812 43.183594 Z M 18.085938 45.410156 C 18.492188 49.039062 19.558594 58.691406 20.480469 66.851562 C 21.402344 75.007812 22.269531 82.875 22.433594 84.347656 C 22.582031 85.820312 22.839844 88.050781 22.984375 89.320312 C 23.242188 91.476562 23.242188 91.621094 22.949219 91.84375 C 22.507812 92.175781 22.324219 92.136719 22.324219 91.75 C 22.324219 91.585938 22.15625 90.1875 21.953125 88.675781 C 21.625 86.152344 21.070312 81.878906 19.835938 72.285156 C 19.578125 70.347656 19.082031 66.5 18.730469 63.71875 C 18.363281 60.9375 17.828125 56.792969 17.535156 54.507812 C 17.238281 52.226562 16.742188 48.320312 16.429688 45.796875 C 16.097656 43.292969 15.894531 41.0625 15.949219 40.824219 C 16.078125 40.328125 17.164062 38.597656 17.277344 38.707031 C 17.3125 38.761719 17.683594 41.765625 18.085938 45.410156 Z M 12.449219 53.347656 C 12.726562 55.558594 13.242188 59.59375 13.59375 62.335938 C 13.941406 65.0625 14.386719 68.46875 14.585938 69.890625 L 14.9375 72.46875 L 14.550781 72.800781 C 14.328125 72.984375 14.109375 73.058594 14.035156 72.984375 C 13.960938 72.910156 13.8125 72.171875 13.703125 71.363281 C 13.59375 70.550781 12.910156 65.820312 12.175781 60.863281 L 10.867188 51.839844 L 11.289062 50.585938 C 11.511719 49.90625 11.75 49.351562 11.804688 49.351562 C 11.878906 49.351562 12.15625 51.15625 12.449219 53.347656 Z M 113.566406 50.9375 C 113.824219 51.195312 113.863281 52.335938 113.863281 60.789062 L 113.863281 70.347656 L 113.347656 70.347656 C 112.222656 70.347656 112.242188 70.625 112.167969 60.164062 L 112.113281 50.640625 L 112.703125 50.640625 C 113.015625 50.640625 113.421875 50.769531 113.566406 50.9375 Z M 73.25 54.234375 C 77.414062 54.859375 81.042969 56.019531 84.632812 57.863281 C 86.953125 59.058594 88.058594 59.886719 90.636719 62.355469 C 94.46875 66.019531 96.824219 69.226562 99.035156 73.757812 C 102.257812 80.351562 103.511719 86.1875 105.097656 101.84375 C 105.8125 108.863281 106.753906 121.589844 106.957031 126.800781 C 107.011719 128.3125 107.140625 130.796875 107.25 132.328125 C 107.453125 135.570312 107.691406 135.128906 104.839844 136.507812 C 100.878906 138.425781 97.066406 139.75 92.035156 140.984375 C 85.886719 142.496094 81.90625 142.972656 75.828125 142.992188 L 71.410156 143.011719 L 71.445312 140.890625 C 71.445312 139.730469 71.554688 137.023438 71.667969 134.90625 C 72.21875 124.648438 72.109375 111.699219 71.390625 104.515625 C 70.984375 100.390625 70.191406 95.378906 69.75 94.273438 C 69.660156 94.035156 70.082031 93.832031 71.90625 93.207031 C 75.238281 92.046875 78.132812 90.589844 78.574219 89.871094 C 79.363281 88.511719 77.945312 86.558594 76.140625 86.558594 C 75.828125 86.558594 74.890625 86.890625 74.023438 87.277344 C 69.898438 89.171875 61.628906 91.402344 56.859375 91.898438 C 53.5625 92.25 48.441406 92.046875 44.886719 91.402344 C 42.953125 91.050781 39.488281 89.742188 36.597656 88.253906 C 33.265625 86.519531 31.21875 84.21875 30.613281 81.492188 C 30.28125 80.019531 30.371094 77.070312 30.796875 75.414062 C 31.257812 73.589844 32.546875 70.9375 33.722656 69.390625 C 38.972656 62.484375 49.804688 56.5 60.910156 54.398438 C 64.445312 53.734375 69.457031 53.664062 73.25 54.234375 Z M 130.070312 54.804688 C 130.734375 55.082031 130.808594 55.152344 130.808594 55.78125 C 130.84375 60.808594 130.734375 72.300781 130.640625 72.78125 C 130.625 72.945312 129.664062 72.964844 129.261719 72.816406 C 129.003906 72.726562 128.964844 71.730469 128.964844 63.609375 C 128.964844 57.789062 129.039062 54.507812 129.148438 54.507812 C 129.242188 54.507812 129.664062 54.636719 130.070312 54.804688 Z M 138.121094 64.914062 L 138.78125 65.191406 L 138.652344 80.441406 C 138.507812 99.875 138.488281 100.445312 137.789062 102.121094 C 136.648438 104.867188 136.703125 105.417969 136.8125 93.371094 C 136.847656 87.347656 136.941406 81.253906 136.976562 79.835938 C 137.015625 78.417969 137.050781 74.417969 137.070312 70.9375 C 137.070312 66.738281 137.125 64.640625 137.253906 64.640625 C 137.363281 64.640625 137.75 64.769531 138.121094 64.914062 Z M 27.351562 69.503906 C 27.460938 70.992188 27.425781 71.140625 26.890625 72.320312 L 26.300781 73.574219 L 26.082031 71.730469 C 25.730469 68.785156 25.730469 68.65625 26.429688 68.210938 C 26.742188 67.992188 27.074219 67.84375 27.128906 67.882812 C 27.1875 67.917969 27.296875 68.65625 27.351562 69.503906 Z M 15.96875 80.609375 C 16.132812 82.117188 17.425781 92.136719 18.085938 97.054688 C 19.082031 104.664062 19.15625 105.75 18.714844 105.289062 C 18.65625 105.234375 18.234375 102.671875 17.792969 99.597656 C 14.917969 79.742188 14.9375 79.871094 15.175781 79.722656 C 15.675781 79.394531 15.839844 79.578125 15.96875 80.609375 Z M 29.230469 89.042969 C 29.339844 89.503906 29.875 94.496094 29.875 95.105469 C 29.875 95.621094 29.210938 96.097656 28.917969 95.804688 C 28.824219 95.710938 28.585938 94.144531 28.402344 92.339844 C 28.199219 90.515625 27.996094 88.621094 27.941406 88.125 L 27.832031 87.203125 L 28.476562 87.9375 C 28.84375 88.34375 29.175781 88.839844 29.230469 89.042969 Z M 44.09375 95.988281 C 44.296875 96.171875 44.425781 96.910156 44.589844 98.898438 C 44.867188 102.488281 44.902344 102.214844 44.148438 102.214844 C 43.375 102.214844 43.394531 102.269531 43.136719 99.027344 C 42.878906 95.730469 42.878906 95.765625 43.375 95.765625 C 43.613281 95.765625 43.929688 95.878906 44.09375 95.988281 Z M 58.679688 96.265625 C 58.71875 96.449219 58.808594 97.554688 58.882812 98.714844 C 58.9375 99.875 59.105469 102.488281 59.253906 104.515625 C 59.769531 111.957031 59.785156 112.894531 59.472656 112.894531 C 59.125 112.894531 59.085938 112.621094 58.679688 107.371094 C 58.535156 105.195312 58.257812 101.769531 58.074219 99.761719 C 57.90625 97.757812 57.796875 96.078125 57.851562 96.042969 C 58.054688 95.820312 58.589844 95.988281 58.679688 96.265625 Z M 24.054688 99.800781 C 24.164062 99.964844 24.863281 105.859375 25.730469 113.910156 C 25.988281 116.339844 26.246094 118.679688 26.300781 119.121094 L 26.394531 119.914062 L 25.933594 119.617188 C 25.582031 119.378906 25.453125 119.140625 25.453125 118.714844 C 25.453125 117.554688 24.664062 109.914062 24.054688 105.234375 C 23.703125 102.582031 23.429688 100.242188 23.429688 100.019531 C 23.429688 99.632812 23.871094 99.488281 24.054688 99.800781 Z M 130.347656 107.5 L 130.21875 115.199219 L 129.757812 115.878906 C 128.707031 117.425781 128.761719 117.722656 128.820312 109.101562 L 128.855469 101.199219 L 129.535156 100.5 C 129.90625 100.132812 130.273438 99.820312 130.347656 99.820312 C 130.402344 99.820312 130.402344 103.28125 130.347656 107.5 Z M 113.308594 119.710938 C 113.402344 130.410156 113.382812 131.242188 113.089844 131.574219 C 112.90625 131.773438 112.738281 131.902344 112.683594 131.847656 C 112.554688 131.703125 112.371094 108.363281 112.519531 108.234375 C 112.59375 108.164062 112.777344 108.125 112.941406 108.144531 C 113.179688 108.199219 113.238281 109.507812 113.308594 119.710938 Z M 53.15625 112.378906 C 53.285156 113.523438 53.746094 118.992188 53.929688 121.570312 C 54.039062 123.300781 54.039062 123.359375 53.632812 123.488281 C 53.414062 123.558594 53.15625 123.542969 53.082031 123.449219 C 52.953125 123.320312 52.546875 119.230469 52.050781 112.933594 L 51.921875 111.421875 L 52.492188 111.421875 C 53.027344 111.421875 53.0625 111.460938 53.15625 112.378906 Z M 38.679688 118.828125 C 38.808594 118.957031 38.898438 119.417969 38.898438 119.875 C 38.898438 120.355469 39.121094 122.84375 39.359375 125.421875 C 40.058594 132.476562 40.117188 133.433594 39.800781 133.25 C 39.324219 132.972656 38.898438 132.546875 38.992188 132.4375 C 39.027344 132.363281 38.953125 131.445312 38.808594 130.394531 C 38.679688 129.324219 38.511719 127.59375 38.4375 126.527344 C 38.367188 125.457031 38.199219 123.503906 38.050781 122.199219 C 37.703125 118.972656 37.722656 118.605469 38.125 118.605469 C 38.308594 118.605469 38.550781 118.699219 38.679688 118.828125 Z M 47.390625 131.222656 C 47.445312 131.628906 47.554688 133.136719 47.628906 134.574219 C 47.757812 137.335938 47.703125 137.539062 46.949219 136.96875 C 46.726562 136.804688 46.582031 136.101562 46.359375 134.003906 C 45.972656 130.210938 45.953125 130.355469 46.671875 130.429688 C 47.207031 130.484375 47.28125 130.558594 47.390625 131.222656 Z M 47.390625 131.222656 "
                    fill-opacity="1" fill-rule="nonzero" />
                <path fill="#d9d9d9"
                    d="M 40.816406 63.054688 C 38.898438 63.882812 38.753906 66.480469 40.558594 67.402344 C 41.863281 68.066406 43.191406 67.753906 43.871094 66.609375 C 45.160156 64.511719 43.0625 62.078125 40.816406 63.054688 Z M 53.304688 64.824219 C 51.535156 65.910156 51.535156 68.527344 53.304688 69.613281 C 55.054688 70.664062 57.316406 69.28125 57.316406 67.179688 C 57.316406 65.15625 54.996094 63.792969 53.304688 64.824219 Z M 53.304688 64.824219 "
                    fill-opacity="1" fill-rule="nonzero" />
            </g>
        </g>
    </g>
</svg>