<svg xmlns="http://www.w3.org/2000/svg" xmlns:xlink="http://www.w3.org/1999/xlink" width="200" zoomAndPan="magnify"
    viewBox="0 0 150 149.999998" height="200" preserveAspectRatio="xMidYMid meet" version="1.0">
    <defs>
        <filter x="0%" y="0%" width="100%" height="100%" id="4cfeb2ce65">
            <feColorMatrix values="0 0 0 0 1 0 0 0 0 1 0 0 0 0 1 0 0 0 1 0" color-interpolation-filters="sRGB" />
        </filter>
        <mask id="bf7740e70a">
            <g filter="url(#4cfeb2ce65)">
                <rect x="-15" width="180" fill="#000000" y="-15" height="179.999997" fill-opacity="0.35" />
            </g>
        </mask>
        <clipPath id="5f073d78b6">
            <path d="M 35 112 L 44 112 L 44 150 L 35 150 Z M 35 112 " clip-rule="nonzero" />
        </clipPath>
        <clipPath id="5acd94aacf">
            <rect x="0" width="76" y="0" height="150" />
        </clipPath>
    </defs>
    <g mask="url(#bf7740e70a)">
        <g transform="matrix(1, 0, 0, 1, 37, -0.000000000000007527)">
            <g clip-path="url(#5acd94aacf)">
                <path fill="#737373"
                    d="M 37.53125 0.40625 L 41.535156 7.925781 C 42.433594 9.3125 43.410156 10.542969 44.558594 11.6875 C 47.910156 15.039062 51.09375 18.546875 53.953125 22.308594 C 60.734375 31.214844 65.308594 41.105469 68.578125 51.800781 C 70.535156 58.335938 71.601562 65.039062 71.679688 71.816406 C 72.007812 92.082031 65.0625 109.480469 51.054688 123.941406 C 48.765625 126.230469 46.320312 128.347656 43.695312 130.234375 C 42.308594 130.234375 41.652344 129.167969 41.078125 128.1875 C 40.015625 126.394531 39.363281 124.34375 39.035156 122.304688 C 38.542969 119.855469 38.21875 117.402344 38.378906 114.871094 L 38.378906 113.726562 C 38.265625 113.484375 37.042969 0.984375 37.53125 0.40625 Z M 37.53125 0.40625 "
                    fill-opacity="1" fill-rule="nonzero" />
                <path fill="#939597"
                    d="M 37.53125 0.160156 C 37.367188 -0.167969 37.203125 0.078125 37.039062 0.238281 C 37.117188 1.878906 36.546875 3.34375 35.652344 4.738281 C 34.667969 6.125 33.363281 7.191406 32.054688 8.335938 C 24.789062 14.625 19.070312 22.222656 14.492188 30.722656 C 8.398438 42.160156 5.257812 54.417969 4.367188 67.320312 C 3.960938 71.976562 5.839844 88.402344 7.304688 93.140625 C 11.308594 105.722656 18.5 116.265625 27.8125 125.414062 C 30.101562 127.617188 32.546875 129.660156 35.078125 131.625 C 35.816406 131.625 35.894531 130.96875 36.0625 130.480469 C 36.386719 129.4375 36.632812 128.375 36.800781 127.292969 L 38.441406 115.039062 Z M 37.53125 0.160156 "
                    fill-opacity="1" fill-rule="nonzero" />
                <g clip-path="url(#5f073d78b6)">
                    <path fill="#ffffff"
                        d="M 41.535156 135.210938 C 41.699219 133.335938 42.597656 131.78125 43.578125 130.226562 C 42.59375 129.820312 41.863281 129.007812 41.289062 128.105469 C 40.796875 127.289062 40.390625 126.308594 40.070312 125.410156 C 38.929688 121.976562 38.683594 118.378906 38.355469 114.871094 L 38.355469 112.75 C 37.949219 113.078125 37.863281 115.851562 37.863281 116.265625 C 37.625 119.972656 37.132812 123.652344 36.390625 127.292969 C 36.148438 128.765625 35.984375 130.234375 35.078125 131.539062 C 35.078125 131.703125 35.078125 131.867188 35.160156 132.113281 C 36.632812 136.445312 37.035156 140.855469 37.28125 145.351562 L 37.28125 146.992188 C 37.28125 148.949219 37.203125 148.539062 38.828125 149.195312 C 39.484375 149.4375 40.21875 149.523438 40.875 150.007812 C 41.367188 150.007812 41.445312 149.601562 41.445312 149.273438 L 41.203125 146.578125 L 41.203125 139.058594 C 41.121094 137.746094 41.367188 136.445312 41.53125 135.214844 Z M 41.535156 135.210938 "
                        fill-opacity="1" fill-rule="nonzero" />
                </g>
            </g>
        </g>
    </g>
</svg>